# xmcd CD database file
#
# Track frame offsets:
#	150
#	31887
#	45345
#	88615
#	103076
#	120946
#	137433
#	154248
#	173877
#	209542
#	241592
#	261674
#	284640
#	320208
#
# Disc length: 4487 seconds
#
# Revision: 1
# Processed by: cddbd v1.5.2PL0 Copyright (c) Steve Scherf et al.
# Submitted via: CDex 1.51
#
DISCID=c511850e
DTITLE=The Modern Jazz Quartet - 2 Django and Concorde
DYEAR=1955
DGENRE=Jazz
TTITLE0=Django
TTITLE1=One Bass Hit
TTITLE2=La Ronds Suite
TTITLE3=The Queen's Fancy
TTITLE4=Delaunay's Dilemma
TTITLE5=Autumn In New York
TTITLE6=But Not For Me
TTITLE7=Milano
TTITLE8=Ralph's New Blues
TTITLE9=All Of You
TTITLE10=I'll Remember April
TTITLE11=Serswin Medley: Soon, For You, For Me, Forevermore, Love Walked In, Our Love Is Here To Stay
TTITLE12=Softly, As In A Morning Sunrise
TTITLE13=Concorde
EXTD=YEAR: 1955
EXTT0=
EXTT1=
EXTT2=
EXTT3=
EXTT4=
EXTT5=
EXTT6=
EXTT7=
EXTT8=
EXTT9=
EXTT10=
EXTT11=
EXTT12=
EXTT13=
PLAYORDER=
